<?xml version="1.0" encoding="UTF-8"?>
<svg width="507px" height="487px" viewBox="0 0 507 487" version="1.1" xmlns="http://www.w3.org/2000/svg" xmlns:xlink="http://www.w3.org/1999/xlink">
    <!-- Generator: Sketch 59.1 (86144) - https://sketch.com -->
    <title>Asset 1 Copy</title>
    <desc>Created with Sketch.</desc>
    <g id="Page-1" stroke="none" stroke-width="1" fill="none" fill-rule="evenodd">
        <g id="Apple-TV-Copy-10" transform="translate(-423.000000, -365.000000)" fill="#FF9D01" fill-rule="nonzero">
            <g id="Asset-1-Copy" transform="translate(423.000000, 365.000000)">
                <path d="M260,438 L111.224526,438 C87.313836,437.158835 67.1162228,419.968277 62.4313309,396.471219 L0,42 L148.775474,42 C172.679704,42.8578486 192.868378,60.0407985 197.568669,83.5287812 L260,438 Z" id="Path"></path>
                <path d="M395,222 L275.464494,222 C257.477091,221.343611 242.296104,208.460177 238.776751,190.86473 L205,0 L324.535506,0 C342.521795,0.618241744 357.716056,13.4938658 361.223249,31.0892116 L395,222 Z" id="Path"></path>
                <path d="M503.82126,486.99735 L327.407395,486.99735 C308.388904,486.3196 292.319571,472.617428 288.563975,453.875926 L252.078905,245.810207 C251.864196,244.872671 252.093132,243.888083 252.699059,243.143111 C253.304985,242.398138 254.219792,241.97652 255.17713,242 L431.590996,242 C450.60491,242.666249 466.667541,256.37903 470.388174,275.122435 L506.919485,483.234608 C507.137158,484.167834 506.90785,485.149623 506.299707,485.888203 C505.691564,486.626782 504.774577,487.037149 503.82126,486.99735 L503.82126,486.99735 Z" id="Path"></path>
            </g>
        </g>
    </g>
</svg>